<svg xmlns="http://www.w3.org/2000/svg" viewBox="0 0 375 370" width="375" height="370">
  <defs>
    <radialGradient id="skyGrad" cx="50%" cy="30%" r="70%">
      <stop offset="0%" stop-color="#1a1640"/>
      <stop offset="60%" stop-color="#0f0e28"/>
      <stop offset="100%" stop-color="#07070f"/>
    </radialGradient>
    <radialGradient id="moonHalo" cx="50%" cy="44%" r="28%">
      <stop offset="0%" stop-color="#6C63FF" stop-opacity="0.12"/>
      <stop offset="100%" stop-color="#6C63FF" stop-opacity="0"/>
    </radialGradient>
  </defs>

  <!-- Sky background -->
  <rect width="375" height="370" fill="url(#skyGrad)"/>

  <!-- Moon ambient halo on background -->
  <ellipse cx="187" cy="160" rx="120" ry="100" fill="url(#moonHalo)"/>

  <!-- Stars — varied sizes and opacities -->
  <!-- Top left cluster -->
  <circle cx="22"  cy="58"  r="1.3" fill="white" opacity="0.7"/>
  <circle cx="45"  cy="38"  r="0.8" fill="white" opacity="0.5"/>
  <circle cx="68"  cy="72"  r="1.0" fill="white" opacity="0.6"/>
  <circle cx="38"  cy="95"  r="0.7" fill="white" opacity="0.4"/>
  <circle cx="88"  cy="50"  r="0.9" fill="white" opacity="0.55"/>
  <circle cx="14"  cy="130" r="0.8" fill="white" opacity="0.45"/>
  <circle cx="55"  cy="148" r="0.6" fill="white" opacity="0.35"/>
  <circle cx="102" cy="88"  r="0.7" fill="white" opacity="0.4"/>
  <circle cx="76"  cy="118" r="1.0" fill="white" opacity="0.5"/>
  <circle cx="28"  cy="175" r="0.7" fill="white" opacity="0.3"/>
  <circle cx="82"  cy="195" r="0.6" fill="white" opacity="0.28"/>

  <!-- Top right cluster -->
  <circle cx="348" cy="52"  r="1.2" fill="white" opacity="0.65"/>
  <circle cx="322" cy="38"  r="0.9" fill="white" opacity="0.5"/>
  <circle cx="360" cy="88"  r="0.8" fill="white" opacity="0.45"/>
  <circle cx="298" cy="68"  r="1.0" fill="white" opacity="0.55"/>
  <circle cx="340" cy="115" r="0.7" fill="white" opacity="0.4"/>
  <circle cx="312" cy="145" r="0.8" fill="white" opacity="0.38"/>
  <circle cx="368" cy="148" r="0.6" fill="white" opacity="0.32"/>
  <circle cx="280" cy="95"  r="0.7" fill="white" opacity="0.38"/>
  <circle cx="265" cy="128" r="0.9" fill="white" opacity="0.42"/>
  <circle cx="350" cy="188" r="0.6" fill="white" opacity="0.28"/>
  <circle cx="290" cy="200" r="0.7" fill="white" opacity="0.3"/>

  <!-- Top center sparse -->
  <circle cx="152" cy="28"  r="0.8" fill="white" opacity="0.45"/>
  <circle cx="187" cy="22"  r="1.0" fill="white" opacity="0.5"/>
  <circle cx="222" cy="35"  r="0.7" fill="white" opacity="0.4"/>
  <circle cx="135" cy="55"  r="0.6" fill="white" opacity="0.35"/>
  <circle cx="240" cy="58"  r="0.8" fill="white" opacity="0.4"/>

  <!-- Twinkle stars (slightly larger, brighter) -->
  <circle cx="34"  cy="62"  r="1.5" fill="white" opacity="0.8"/>
  <circle cx="336" cy="70"  r="1.4" fill="white" opacity="0.75"/>
  <circle cx="195" cy="44"  r="1.3" fill="white" opacity="0.7"/>
  <circle cx="118" cy="32"  r="1.2" fill="white" opacity="0.65"/>
  <circle cx="258" cy="42"  r="1.2" fill="white" opacity="0.6"/>

  <!-- Lower area fade-out stars -->
  <circle cx="40"  cy="230" r="0.6" fill="white" opacity="0.2"/>
  <circle cx="335" cy="240" r="0.6" fill="white" opacity="0.2"/>
  <circle cx="110" cy="268" r="0.5" fill="white" opacity="0.15"/>
  <circle cx="265" cy="260" r="0.5" fill="white" opacity="0.15"/>
</svg>
